<?xml version="1.0" standalone="no"?>
<!DOCTYPE svg PUBLIC "-//W3C//DTD SVG 20010904//EN"
 "http://www.w3.org/TR/2001/REC-SVG-20010904/DTD/svg10.dtd">
<svg version="1.0" xmlns="http://www.w3.org/2000/svg"
 width="256.000000pt" height="256.000000pt" viewBox="0 0 256.000000 256.000000"
 preserveAspectRatio="xMidYMid meet">
<metadata>
Created by potrace 1.14, written by Peter Selinger 2001-2017
</metadata>
<g transform="translate(0.000000,256.000000) scale(0.100000,-0.100000)"
fill="#000000" stroke="none">
<path d="M847 2304 c-1 -1 -36 -4 -78 -7 -340 -27 -633 -185 -733 -397 -59
-126 -37 -281 57 -397 l37 -46 0 -532 c0 -574 0 -573 53 -623 51 -48 49 -48
1117 -47 1122 1 1039 -4 1097 72 l28 36 5 553 5 553 26 28 c59 63 96 164 94
263 0 94 -37 178 -114 262 -106 116 -325 227 -501 254 -19 3 -42 7 -50 9 -48
13 -182 18 -588 19 -250 0 -454 0 -455 0z"/>
</g>
</svg>
